<?xml version="1.0" encoding="utf-8"?>
<!-- Generator: Adobe Illustrator 24.0.3, SVG Export Plug-In . SVG Version: 6.00 Build 0)  -->
<svg version="1.1" id="Layer_1" xmlns="http://www.w3.org/2000/svg" xmlns:xlink="http://www.w3.org/1999/xlink" x="0px" y="0px"
	 viewBox="0 0 252 144" style="enable-background:new 0 0 252 144;" xml:space="preserve">
<style type="text/css">
	.st0{clip-path:url(#SVGID_2_);}
	.st1{clip-path:url(#SVGID_4_);fill:url(#SVGID_5_);}
	.st2{opacity:0.61;clip-path:url(#SVGID_7_);}
	.st3{clip-path:url(#SVGID_9_);fill:#FFFFFF;}
	.st4{clip-path:url(#SVGID_9_);}
	.st5{clip-path:url(#SVGID_11_);fill:none;stroke:#FFFFFF;stroke-width:0.6673;stroke-miterlimit:10;}
	.st6{clip-path:url(#SVGID_11_);fill:#FFFFFF;}
	.st7{clip-path:url(#SVGID_9_);fill:none;stroke:#FFFFFF;stroke-width:0.2224;stroke-miterlimit:10;}
	.st8{clip-path:url(#SVGID_2_);fill:none;stroke:#FFFFFF;stroke-width:1.665;}
</style>
<g>
	<defs>
		<rect id="SVGID_1_" width="252" height="144"/>
	</defs>
	<clipPath id="SVGID_2_">
		<use xlink:href="#SVGID_1_"  style="overflow:visible;"/>
	</clipPath>
	<g class="st0">
		<defs>
			<rect id="SVGID_3_" width="252" height="144"/>
		</defs>
		<clipPath id="SVGID_4_">
			<use xlink:href="#SVGID_3_"  style="overflow:visible;"/>
		</clipPath>
		
			<linearGradient id="SVGID_5_" gradientUnits="userSpaceOnUse" x1="-53.6428" y1="199.109" x2="-52.6428" y2="199.109" gradientTransform="matrix(-365.5144 234.6561 -234.6561 -365.5144 27400.2285 85334.5391)">
			<stop  offset="0" style="stop-color:#EECCE2"/>
			<stop  offset="8.181820e-04" style="stop-color:#EECCE2"/>
			<stop  offset="1.294652e-03" style="stop-color:#F1BAB4"/>
			<stop  offset="1.409090e-03" style="stop-color:#F1B5AA"/>
			<stop  offset="3.636360e-03" style="stop-color:#EC9B8F"/>
			<stop  offset="8.136360e-03" style="stop-color:#EECCE2"/>
			<stop  offset="0.0179" style="stop-color:#EECCE2"/>
			<stop  offset="0.0191" style="stop-color:#EC9B8F"/>
			<stop  offset="0.0227" style="stop-color:#EECCE2"/>
			<stop  offset="0.0236" style="stop-color:#EC9B8F"/>
			<stop  offset="0.0238" style="stop-color:#F6EB14"/>
			<stop  offset="0.0273" style="stop-color:#EECCE2"/>
			<stop  offset="0.0361" style="stop-color:#EECCE2"/>
			<stop  offset="0.0434" style="stop-color:#EECCE2"/>
			<stop  offset="0.05" style="stop-color:#EECCE2"/>
			<stop  offset="0.0729" style="stop-color:#EECCE2"/>
			<stop  offset="0.1299" style="stop-color:#EECCE2"/>
			<stop  offset="0.174" style="stop-color:#EECCE2"/>
			<stop  offset="0.2423" style="stop-color:#EECCE2"/>
			<stop  offset="0.2431" style="stop-color:#EECCE2"/>
			<stop  offset="0.3768" style="stop-color:#EECCE2"/>
			<stop  offset="0.6976" style="stop-color:#72CEE2"/>
			<stop  offset="0.9227" style="stop-color:#6FCCDD"/>
			<stop  offset="0.9725" style="stop-color:#F9AE85"/>
			<stop  offset="0.9773" style="stop-color:#6FCCDD"/>
			<stop  offset="0.9826" style="stop-color:#7CD1E8"/>
			<stop  offset="0.9841" style="stop-color:#EECCE2"/>
			<stop  offset="0.9863" style="stop-color:#6FCCDD"/>
			<stop  offset="0.9908" style="stop-color:#F9CADE"/>
			<stop  offset="0.9918" style="stop-color:#6FCCDD"/>
			<stop  offset="0.9937" style="stop-color:#6FCCDD"/>
			<stop  offset="0.9946" style="stop-color:#EECCE2"/>
			<stop  offset="0.9947" style="stop-color:#F9AE85"/>
			<stop  offset="0.9955" style="stop-color:#B9529F"/>
			<stop  offset="0.996" style="stop-color:#6FCCDD"/>
			<stop  offset="0.9962" style="stop-color:#F9AE85"/>
			<stop  offset="0.9964" style="stop-color:#6FCCDD"/>
			<stop  offset="0.9969" style="stop-color:#B9529F"/>
			<stop  offset="0.9976" style="stop-color:#6FCCDD"/>
			<stop  offset="1" style="stop-color:#B9529F"/>
			<stop  offset="1" style="stop-color:#B9529F"/>
			<stop  offset="1" style="stop-color:#EECCE2"/>
			<stop  offset="1" style="stop-color:#EC9B8F"/>
		</linearGradient>
		<polygon class="st1" points="178.45,-114.56 -65.47,42.03 73.55,258.56 317.46,101.97 		"/>
	</g>
	<g class="st0">
		<defs>
			<rect id="SVGID_6_" x="7.61" y="6.71" width="236.77" height="130.57"/>
		</defs>
		<clipPath id="SVGID_7_">
			<use xlink:href="#SVGID_6_"  style="overflow:visible;"/>
		</clipPath>
		<g class="st2">
			<g>
				<defs>
					<rect id="SVGID_8_" x="101.15" y="44.36" width="49.7" height="55.28"/>
				</defs>
				<clipPath id="SVGID_9_">
					<use xlink:href="#SVGID_8_"  style="overflow:visible;"/>
				</clipPath>
				<path class="st3" d="M105.84,58.46c-1.24,1.58-2.11,3.4-2.57,5.33c-0.49,2.06,2.76,2.95,3.26,0.88c0.4-1.69,1.14-3.17,2.23-4.55
					c0.56-0.71,0.11-1.85-0.61-2.26C107.28,57.37,106.4,57.75,105.84,58.46"/>
				<path class="st3" d="M111.58,64.92c0.68-1.26,1.47-2.42,2.43-3.49c-0.94-0.53-1.88-1.07-2.82-1.6
					c-0.54,1.29-1.76,2.48-2.61,3.59c-0.94,1.23-1.87,2.46-2.81,3.69c-0.55,0.72-0.12,1.83,0.61,2.26c0.85,0.5,1.77,0.12,2.31-0.59
					c1.02-1.34,2.04-2.69,3.06-4.03c0.99-1.3,2.06-2.53,2.69-4.04c0.64-1.54-1.75-2.79-2.82-1.6c-1.15,1.27-2.15,2.65-2.96,4.16
					C107.65,65.14,110.57,66.81,111.58,64.92"/>
				<path class="st3" d="M108.81,64.84c0.03-0.35,0.04-0.68,0.04-1.03c-0.03-1.5-2.45-2.42-3.15-0.83
					c-0.51,1.16-0.94,2.32-1.26,3.54c-0.53,2.08,2.55,2.87,3.26,0.88c0.43-1.23,0.87-2.47,1.3-3.7c0.19-0.55,0.39-1.1,0.58-1.64
					c0.12-0.34,0.24-0.68,0.36-1.03c0.05-0.14,0.1-0.27,0.14-0.41c0.16-0.4,0.06-0.29-0.29,0.35c-0.28,0.07-0.57,0.15-0.85,0.23
					c0.64-0.07,1.28-0.08,1.92-0.11c-0.49-0.83-0.97-1.65-1.46-2.48c-0.61,1.34-1.34,2.6-2.21,3.79c-1.26,1.73,1.67,3.38,2.92,1.66
					c0.87-1.2,1.6-2.45,2.21-3.79c0.48-1.06-0.05-2.55-1.46-2.48c-0.94,0.05-2.18-0.09-3,0.45c-0.76,0.49-0.97,1.34-1.25,2.13
					c-0.72,2.05-1.45,4.11-2.17,6.16c1.09,0.29,2.17,0.58,3.26,0.88c0.24-0.94,0.53-1.86,0.92-2.75c-1.05-0.28-2.1-0.55-3.15-0.83
					c0.01,0.35,0,0.68-0.04,1.03C105.24,66.96,108.62,66.94,108.81,64.84"/>
				<path class="st3" d="M102.74,64.84c-0.09,1.41-0.6,2.78-0.75,4.19c-0.16,1.47-0.24,3.01-0.24,4.49c0,1.17,0.37,2.33,1.52,2.88
					c1.43,0.69,2.44-0.18,3.75-0.57c2.07-0.62,1.19-3.81-0.9-3.18c-0.33,0.1-1.19,0.29-1.39,0.59c-0.4,0.14-0.27,0.31,0.39,0.52
					c0-0.03,0.01-0.07,0.01-0.1c0.17-0.17,0.06-1.33,0.07-1.58c0.02-0.51,0.05-1.02,0.08-1.53c0.1-1.94,0.73-3.77,0.85-5.7
					C106.25,62.72,102.88,62.73,102.74,64.84"/>
				<path class="st3" d="M105.57,76.69c3.9-0.43,6.83-3.07,10.43-4.38c1.75-0.63,3.57-0.69,5.41-0.7c0.98-0.01,1.99-0.05,2.95,0.18
					c0.93,0.23,1.75,0.74,2.56,1.23c1.85,1.13,3.55-1.73,1.7-2.85c-1.88-1.15-3.71-1.8-5.95-1.86c-2.02-0.05-4.11-0.03-6.08,0.39
					c-1.92,0.41-3.75,1.34-5.49,2.2c-1.83,0.9-3.43,2.25-5.53,2.48c-0.91,0.1-1.69,0.69-1.69,1.65
					C103.89,75.85,104.66,76.79,105.57,76.69"/>
				<path class="st3" d="M127.39,69.75c-0.91-0.18-1.78-0.45-2.64-0.8c-0.82-0.33-1.89,0.36-2.08,1.15
					c-0.22,0.96,0.3,1.67,1.18,2.03c0.85,0.35,1.73,0.61,2.64,0.8c0.86,0.18,1.87-0.25,2.08-1.15
					C128.77,70.96,128.32,69.94,127.39,69.75"/>
				<path class="st3" d="M108.31,70.78c0-0.48,0-0.95,0.01-1.43c0.01-1.82-2.91-2.29-3.32-0.44c-0.29,1.3-0.76,3.19-0.13,4.44
					c0.7,1.38,2.46,1.41,3.54,0.44c1.97-1.76,3.13-4.87,3.67-7.35c0.37-1.7-1.52-2.62-2.82-1.6c-1.47,1.15-3.93,4.44-1.96,6.11
					c2.59,2.18,4.8-2.68,5.88-4.29c-1.03-0.42-2.06-0.85-3.09-1.27c-0.59,1.47-0.99,2.97-1.21,4.54c-0.2,1.48,1.05,2.48,2.48,1.86
					c1.55-0.67,2.58-1.95,3.58-3.23c1.16-1.48-1.41-3.42-2.65-2c-1.17,1.33-2.33,2.67-3.5,4c-1.19,1.36,0.32,3.62,2.05,2.59
					c2.73-1.63,5.49-3.26,8.67-3.86c3-0.57,6.23-0.17,9.01,1.07c0.57-0.95,1.14-1.9,1.7-2.85c-2.5-1.1-4.64-2.91-7.41-3.36
					c-1.42-0.23-2.89-0.26-4.32-0.15c-0.71,0.06-1.43,0.15-2.12,0.31c-0.65,0.15-1.3,0.45-1.97,0.37c0.28,0.08,0.57,0.15,0.85,0.23
					c-0.11-0.05-0.26-0.28-0.25-0.48c-0.08,0.28-0.15,0.55-0.23,0.83c0.32-0.62,1.1-1.02,1.7-1.33c1.92-0.99,0.22-3.84-1.7-2.85
					c-1.7,0.87-3.73,2.41-2.97,4.52c0.3,0.85,0.91,1.75,1.76,2.15c1.03,0.49,2.17,0.15,3.21-0.13c1.96-0.52,4.35-0.62,6.3-0.04
					c1.96,0.58,3.6,1.95,5.46,2.77c0.84,0.37,1.81,0.23,2.31-0.59c0.43-0.7,0.22-1.89-0.61-2.26c-3.43-1.53-7.12-2.08-10.86-1.53
					c-3.75,0.55-7.05,2.42-10.24,4.32c0.68,0.86,1.36,1.73,2.05,2.59c1.17-1.33,2.33-2.67,3.5-4c-0.88-0.67-1.77-1.33-2.65-2
					c-0.67,0.85-1.35,1.61-2.37,2.05c0.83,0.62,1.65,1.24,2.48,1.86c0.22-1.57,0.62-3.07,1.21-4.54c0.73-1.81-2.09-2.76-3.09-1.27
					c-0.42,0.63-0.85,1.26-1.27,1.89c-0.19,0.29-0.38,0.57-0.58,0.86c-0.08,0.11-0.15,0.23-0.23,0.34
					c-0.34,0.41-0.31,0.45,0.09,0.14h0.9c0.25,0.25,0.49,0.5,0.74,0.75v0.88c0.18-1.13,0.85-1.98,1.74-2.68
					c-0.94-0.53-1.88-1.07-2.82-1.6c-0.24,1.08-0.55,2.15-1.04,3.15c-0.22,0.45-0.46,0.89-0.72,1.32c-0.14,0.22-0.65,1.19-0.82,1.23
					c0.43,0.06,0.87,0.11,1.3,0.17c0.08,0.09,0.16,0.17,0.24,0.26c0.08,0.28,0.15,0.55,0.23,0.83c-0.09-0.92,0.04-1.84,0.24-2.73
					c-1.11-0.15-2.21-0.29-3.32-0.44c0,0.48,0,0.95-0.01,1.43C104.93,72.91,108.31,72.91,108.31,70.78"/>
				<path class="st3" d="M115.25,62.36c1.99-0.86,4.57-1.84,5.69-3.79c1.15-2.01,1.31-4.56,1.47-6.81c0.15-2.12-3.23-2.11-3.38,0
					c-0.11,1.62-0.15,3.69-1.01,5.14c-0.4,0.67-1.18,1-1.86,1.36c-0.85,0.46-1.73,0.87-2.62,1.25c-0.84,0.36-1.02,1.55-0.61,2.26
					C113.43,62.61,114.42,62.72,115.25,62.36"/>
				<path class="st3" d="M116.15,60.75c-0.17,0.41-0.34,0.82-0.52,1.24c-0.07,0.18-0.15,0.35-0.22,0.53
					c-0.29,0.5-0.15,0.51,0.43,0.03c0.43,1,0.87,2.01,1.3,3.01c1.35-0.58,3.14-0.53,4.58-0.42c1.42,0.1,3.22,0.28,4.42,1.07
					c1.32,0.86,2.46,1.97,3.79,2.81c1.28,0.81,3.3,0.73,3.38-1.15c0.13-2.93-2.51-5.38-5.01-6.53c-1.3-0.59-2.67-1.06-4.08-1.27
					c-1.47-0.22-3.07-0.16-4.37-0.93v2.85c1.51-0.82,3.6-0.66,5.25-0.37c1.89,0.34,3.71,0.96,5.52,1.6
					c1.32,0.47,2.77-1.28,1.91-2.42c-1.2-1.58-2.77-2.49-4.6-3.24c-1.99-0.82-4.01-1.42-6.18-1.52c-2.17-0.1-2.17,3.19,0,3.3
					c1.57,0.07,3.07,0.52,4.52,1.09c1.17,0.46,2.57,1.02,3.35,2.04c0.64-0.81,1.27-1.61,1.91-2.42c-4.04-1.45-9.29-3.12-13.37-0.9
					c-1.13,0.61-1.06,2.22,0,2.85c2.17,1.29,4.74,0.97,7.09,1.7c1.74,0.54,4.88,1.93,4.7,4.18c0.16-0.39,0.33-0.78,0.49-1.17
					c-0.02,0.03-0.05,0.06-0.07,0.09c0.55-0.14,1.1-0.28,1.64-0.42c-0.53-0.07-1.18-0.79-1.61-1.11c-0.6-0.45-1.21-0.91-1.81-1.36
					c-1.23-0.92-2.46-1.36-3.97-1.67c-2.98-0.6-6.34-0.74-9.18,0.48c-1.73,0.74-0.47,3.73,1.3,3.01c1.68-0.68,2.03-2.58,2.67-4.1
					c0.35-0.83-0.38-1.8-1.18-2.03C117.26,59.33,116.49,59.93,116.15,60.75"/>
				<path class="st3" d="M121.53,53.04c3.48-0.02,7.05-0.07,10.4,0.97c3.21,1,5.95,3.04,8.09,5.54c1.39,1.63,3.77-0.71,2.39-2.33
					c-2.42-2.84-5.6-5.07-9.19-6.27c-3.74-1.25-7.78-1.24-11.69-1.21C119.36,49.76,119.36,53.06,121.53,53.04"/>
				<path class="st3" d="M142.59,57.14c-0.23-0.49-0.72-0.86-1.19-1.12c-0.07-0.04-0.14-0.08-0.22-0.12
					c-0.27-0.15,0.25,0.26,0.02,0.02c-0.06-0.06-0.12-0.12-0.17-0.18c-0.08-0.09-0.05-0.05,0.11,0.14
					c-0.04-0.05-0.07-0.11-0.11-0.17c-0.2,0.75-0.4,1.5-0.61,2.26c-0.56,0.26-1.03,0.24-1.4-0.07c-0.12-0.1-0.13-0.1-0.04-0.02
					c0.07,0.08,0.15,0.15,0.22,0.22c0.14,0.15,0.28,0.31,0.41,0.47c0.25,0.31,0.81,0.48,1.19,0.48c0.41,0,0.91-0.18,1.19-0.48
					c0.3-0.31,0.51-0.73,0.49-1.17c-0.02-0.47-0.2-0.8-0.49-1.17c-0.23-0.29-0.47-0.57-0.76-0.81c-0.73-0.6-1.67-0.8-2.53-0.31
					c-0.78,0.44-1.07,1.49-0.61,2.26c0.33,0.53,0.75,0.96,1.28,1.31c0.14,0.09,0.29,0.18,0.45,0.26c0.24,0.13-0.25-0.22-0.11-0.09
					c0.27,0.24-0.18-0.31-0.06-0.05c0.16,0.35,0.64,0.66,1.01,0.76c0.4,0.11,0.94,0.06,1.3-0.17
					C142.82,58.87,142.99,57.98,142.59,57.14"/>
				<path class="st3" d="M139.68,56.28c-1.09,1.11-2.47,1.64-3.98,1.98c-0.68,0.15-1.77,0.51-2.49,0.41
					c-0.54-0.08-1.26-0.6-1.77-0.81c-1.46-0.61-2.99-1.03-4.47-1.59c-0.76-0.29-1.5-0.62-2.24-0.97c-0.43-0.21-0.86-0.43-1.28-0.66
					c-0.18-0.1-0.36-0.2-0.54-0.3c-0.5-0.33-0.48-0.26,0.07,0.19c0.06,0.42,0.11,0.85,0.17,1.27c0.06-0.24,0.21-0.44,0.33-0.65
					c0.06-0.11,0.13-0.23,0.2-0.34c0.23-0.35,0.12-0.24-0.33,0.35c0.06,0.12,1.77,0.08,1.91,0.09c1.33,0.08,2.66,0.21,3.96,0.51
					c1.18,0.27,2.32,0.68,3.45,1.1c0.66,0.25,1.32,0.51,1.98,0.76c0.42,0.16,1.4,0.35,1.66,0.61c-0.16-0.39-0.33-0.78-0.49-1.17
					c0,0.09,0,0.17-0.01,0.26c0.16-0.39,0.33-0.78,0.49-1.17c-0.47,0.5-2.16,0.19-2.74,0.09c-1.03-0.19-2.03-0.54-3.02-0.88
					c-2.14-0.73-4.29-1.39-6.49-1.93c-2.11-0.52-3.01,2.66-0.9,3.18c2.2,0.54,4.35,1.19,6.49,1.93c2.08,0.71,4.22,1.33,6.45,1.03
					c0.94-0.13,1.97-0.35,2.6-1.09c0.76-0.89,0.64-2.17-0.31-2.87c-0.83-0.61-2.07-0.89-3.04-1.26c-1.09-0.42-2.17-0.86-3.28-1.23
					c-2.13-0.72-4.35-1.03-6.59-1.18c-1.01-0.07-2.19-0.26-3.18-0.03c-1.07,0.24-1.56,1.17-2.01,2.06
					c-0.45,0.89-0.68,1.85,0.11,2.64c0.67,0.67,1.78,1.09,2.62,1.5c2,0.98,4.1,1.65,6.2,2.39c1.03,0.36,1.97,1.04,3.01,1.32
					c1.12,0.3,2.45-0.05,3.56-0.25c2.33-0.42,4.59-1.29,6.26-2.99C143.57,57.08,141.19,54.75,139.68,56.28"/>
				<path class="st3" d="M129.94,71.78c3.06-0.21,6.14-0.38,9.21-0.35c2.96,0.03,5.9,0.44,8.86,0.26c2.16-0.14,2.17-3.43,0-3.3
					c-2.96,0.19-5.9-0.23-8.86-0.26c-3.07-0.03-6.15,0.14-9.21,0.35C127.78,68.62,127.77,71.92,129.94,71.78"/>
				<path class="st3" d="M143.68,59.75c0.15-0.69,0.08-1.38-0.29-1.99c-0.22-0.36-0.59-0.65-1.01-0.76c-0.4-0.11-0.94-0.06-1.3,0.17
					c-0.36,0.23-0.68,0.56-0.78,0.99c-0.1,0.43-0.07,0.88,0.17,1.27c0.03,0.04,0.05,0.08,0.07,0.12c-0.06-0.13-0.11-0.26-0.17-0.39
					c0.04,0.09,0.06,0.18,0.08,0.27c-0.02-0.15-0.04-0.29-0.06-0.44c0.01,0.08,0.01,0.16,0,0.23c0.02-0.15,0.04-0.29,0.06-0.44
					c0,0.03-0.01,0.06-0.02,0.09c-0.09,0.43-0.06,0.88,0.17,1.27c0.2,0.34,0.61,0.67,1.01,0.76c0.43,0.1,0.92,0.08,1.3-0.17
					C143.27,60.51,143.59,60.17,143.68,59.75"/>
				<path class="st3" d="M141.03,60c0.79,0.4,1.04,1.41,1.5,2.1c0.53,0.8,1.13,1.53,1.6,2.36c0.98,1.75,1.55,3.67,2.12,5.58
					c0.61,2.03,3.87,1.17,3.26-0.88c-0.68-2.29-1.41-4.62-2.64-6.69c-0.55-0.92-1.27-1.73-1.79-2.66c-0.6-1.07-1.17-2.08-2.33-2.66
					C140.8,56.19,139.09,59.03,141.03,60"/>
				<path class="st3" d="M147.81,67.34c-3-0.92-5.96-1.62-9.12-1.41c-0.78,0.05-1.56,0.14-2.33,0.25c-0.38,0.05-0.92,0.03-1.25,0.18
					c-0.14,0.02-0.28,0.05-0.42,0.07c0.66,0.62,0.85,0.73,0.57,0.34c-0.23-0.66-0.84-1.34-1.2-1.94c-0.43-0.71-0.84-1.43-1.25-2.15
					c-0.34,0.81-0.67,1.61-1.01,2.42c1.33-0.37,2.62-0.87,3.91-1.36c0.61-0.23,1.23-0.46,1.85-0.67c0.67-0.22,1.44-0.31,2.08-0.57
					c0.13-0.02,0.26-0.05,0.39-0.07c-0.4-0.27-0.5-0.28-0.3-0.03c0.03,0.23,0.34,0.54,0.46,0.76c0.29,0.52,0.54,1.06,0.82,1.58
					c0.66,1.23,1.47,2.23,2.6,3.08c0.57-0.95,1.14-1.9,1.7-2.85c-2.15-0.91-4.28-2.21-6.51-2.89c-2.13-0.65-4.39,0.35-6.16,1.48
					c-1.48,0.96-0.78,2.88,0.85,3.07c2.13,0.25,4.1,0.74,6.25,0.25c1.48-0.34,1.57-2.28,0.4-3.01c-0.26-0.17-0.52-0.27-0.83-0.34
					c-2.12-0.42-3.03,2.75-0.9,3.18c0.01,0,0.01,0,0.02,0c0.13-1,0.27-2.01,0.4-3.01c-1.74,0.4-3.61-0.16-5.35-0.37
					c0.28,1.02,0.57,2.05,0.85,3.07c0.68-0.44,1.39-0.83,2.16-1.08c0.79-0.25,1.31-0.15,2.07,0.21c1.67,0.77,3.33,1.56,5.02,2.28
					c2.01,0.85,3.44-1.55,1.7-2.85c-2.03-1.52-2.13-6.05-5.35-5.84c-3.15,0.2-6.07,1.95-9.07,2.79c-1.06,0.3-1.54,1.49-1.01,2.42
					c0.83,1.46,1.65,2.97,2.62,4.34c1.09,1.54,2.72,0.95,4.33,0.73c1.64-0.22,3.34-0.34,4.99-0.15c1.73,0.2,3.42,0.75,5.08,1.26
					C148.99,71.15,149.88,67.97,147.81,67.34"/>
				<path class="st3" d="M116.93,86.13c2.17,0,2.18-3.3,0-3.3C114.75,82.84,114.75,86.13,116.93,86.13"/>
				<path class="st3" d="M116.96,82.84c-1-0.07-1.88,0.46-2.34,1.31c-0.04,0.08-0.16,0.23-0.17,0.31c0.18-0.21,0.21-0.26,0.09-0.13
					c-0.05,0.04-0.09,0.08-0.14,0.12c-0.25,0.25-0.44,0.53-0.54,0.87c-0.06,0.17-0.09,0.34-0.09,0.52c-0.02,0.17-0.01,0.1,0.02-0.22
					c0.14-0.24,0.29-0.48,0.43-0.73c-0.02,0.02-0.03,0.03-0.05,0.05c-0.59,0.64-0.69,1.71,0,2.33c0.65,0.58,1.75,0.68,2.39,0
					c0.29-0.32,0.65-0.89,0.57-1.36c0.08,0.46-0.63,1.15-0.22,0.75c0.15-0.15,0.29-0.32,0.41-0.5c0.1-0.14,0.19-0.31,0.26-0.46
					c0.07-0.11,0.02-0.05-0.14,0.16c-0.09,0.09-0.2,0.16-0.32,0.19c-0.11,0.06-0.24,0.08-0.37,0.08c0.07,0,0.13,0,0.2,0.01
					c0.88,0.06,1.73-0.8,1.69-1.65C118.61,83.54,117.91,82.91,116.96,82.84"/>
				<path class="st3" d="M115.35,87.74c1.25,0.08,2.34-0.27,3.56-0.4c1.21-0.13,2.37,0.32,3.62,0.13c1.27-0.19,2.37-0.33,3.65-0.09
					c1.24,0.23,2.25,0.22,3.42-0.27c0.84-0.35,1.02-1.55,0.61-2.26c-0.5-0.85-1.48-0.94-2.31-0.59c-0.26,0.11-0.76-0.05-1.01-0.1
					c-0.55-0.1-1.1-0.21-1.65-0.24c-1.22-0.07-2.36,0.27-3.56,0.36c-1.02,0.08-2-0.3-3.03-0.2c-1.13,0.12-2.12,0.44-3.28,0.37
					C113.18,84.31,113.18,87.6,115.35,87.74"/>
				<path class="st3" d="M124.76,83.56c-1.34-0.5-2.71-0.93-4.11-1.23c-0.65-0.14-1.32-0.27-1.98-0.24
					c-0.76,0.04-1.3,0.36-2.01,0.54c0.43,1,0.87,2.01,1.3,3.01c1.11-0.67,2.26-0.6,3.33,0.11c1.8,1.2,3.49-1.65,1.7-2.85
					c-2.01-1.35-4.68-1.36-6.74-0.11c-1.62,0.98-0.58,3.48,1.3,3.01c0.44-0.11,0.85-0.39,1.3-0.44c0.53-0.05,1.19,0.2,1.69,0.32
					c1.13,0.28,2.23,0.64,3.31,1.05c0.86,0.32,1.84-0.36,2.08-1.15C126.22,84.66,125.61,83.88,124.76,83.56"/>
				<path class="st3" d="M129.51,84.17c-0.28,0-0.55,0.01-0.83,0.01c-2.17,0.03-2.17,3.24,0,3.3c1.59,0.04,3.27,0.23,4.83-0.09
					c2.12-0.44,1.23-3.62-0.9-3.18c-1.22,0.25-2.69,0-3.93-0.03v3.3c0.28,0,0.55-0.01,0.83-0.01
					C131.69,87.44,131.69,84.14,129.51,84.17"/>
				<path class="st3" d="M127.87,84.43c0.07,0.12,0.13,0.23,0.18,0.36c-0.06-0.13-0.11-0.26-0.17-0.39
					c0.09,0.22,0.15,0.45,0.19,0.69c-0.02-0.15-0.04-0.29-0.06-0.44c0,0.03,0.01,0.05,0.01,0.08c0.06,0.45,0.15,0.83,0.49,1.17
					c0.29,0.29,0.77,0.5,1.19,0.48c0.44-0.02,0.89-0.16,1.19-0.48c0.28-0.3,0.55-0.74,0.49-1.17c-0.09-0.71-0.25-1.33-0.61-1.96
					c-0.44-0.75-1.55-1.07-2.31-0.59C127.7,82.66,127.4,83.63,127.87,84.43"/>
				<path class="st3" d="M131.24,84.24c0.01-1.05-0.25-2.01-0.77-2.93c-0.54-0.96-0.84-1.91-1.04-3c-0.37-1.99,0.47-4.04,2.79-4.16
					c2.16-0.11,2.18-3.41,0-3.3c-2.93,0.15-5.6,2.06-6.15,4.98c-0.29,1.54,0,3.08,0.39,4.58c0.2,0.76,0.46,1.46,0.85,2.15
					c0.33,0.58,0.56,1,0.56,1.69C127.84,86.37,131.22,86.37,131.24,84.24"/>
				<path class="st3" d="M133.72,83.97c0.1-1.84-0.39-3.59-0.94-5.33c-0.19-0.59-0.76-1.71-0.65-2.3c0.05-0.26,0.52-0.65,0.68-0.85
					c0.3-0.37,0.59-0.75,0.89-1.12c0.36-0.44,0.55-0.66,1.14-0.55c0.8,0.15,1.54,0.59,2.36,0.73c1.79,0.29,3.63,0.15,5.39,0.63
					c2.1,0.57,2.99-2.61,0.9-3.18c-2.13-0.58-4.41-0.24-6.51-0.87c-1.01-0.31-1.74-0.72-2.83-0.58c-1.04,0.13-1.92,0.44-2.63,1.23
					c-0.75,0.84-1.47,1.77-2.14,2.67c-0.7,0.95-0.76,1.88-0.48,3.02c0.54,2.18,1.57,4.22,1.44,6.5
					C130.23,86.09,133.61,86.08,133.72,83.97"/>
				<path class="st3" d="M136.95,87.71c0.26-2.23-0.7-4.24-1.38-6.31c-0.35-1.06-0.61-2.14-0.83-3.24c-0.11-0.55-0.21-1.1-0.3-1.65
					c-0.05-0.28-0.09-0.55-0.13-0.83c-0.04-0.25,0.05-0.81-0.12-0.4c-0.39,0.38-0.79,0.77-1.18,1.15c0.56-0.19,1.31-0.11,1.9-0.12
					c0.8-0.01,1.6,0.01,2.39,0.03c1.45,0.03,3.16,0.26,4.58-0.07c1.39-0.32,1.78-1.67,1.26-2.83c-0.54-1.2-1.64-1.98-2.73-2.67
					c-0.28,1.02-0.57,2.05-0.85,3.07c2.5-0.16,4.94,0.22,7.4,0.66c2.12,0.38,3.04-2.8,0.9-3.18c-2.74-0.49-5.5-0.96-8.29-0.78
					c-1.68,0.11-2.29,2.15-0.85,3.07c0.46,0.29,1.26,0.71,1.39,1.28v-0.88c-0.02,0.05-0.04,0.11-0.06,0.16
					c0.39-0.38,0.79-0.77,1.18-1.15c-0.94,0.28-2.29,0.05-3.26,0.03c-1.01-0.02-2.03-0.06-3.05-0.04c-0.97,0.01-2.34-0.12-3.2,0.4
					c-0.9,0.54-0.92,1.42-0.78,2.31c0.31,2.06,0.64,4.14,1.26,6.14c0.59,1.92,1.62,3.77,1.39,5.83c-0.1,0.89,0.85,1.65,1.69,1.65
					C136.26,89.36,136.84,88.6,136.95,87.71"/>
				<path class="st3" d="M146.68,71.68c-0.08,1.51,0.35,2.97,0.21,4.49c-0.14,1.54-0.56,3.09-0.96,4.58
					c-0.71,2.6-1.84,5.21-4.37,6.54c-1.91,1.01-0.21,3.86,1.7,2.85c3.03-1.6,4.75-4.6,5.7-7.73c0.52-1.69,0.92-3.44,1.18-5.19
					c0.14-0.96,0.23-1.92,0.14-2.89c-0.08-0.89-0.27-1.75-0.22-2.65C150.16,69.55,146.78,69.56,146.68,71.68"/>
				<path class="st3" d="M142.74,87.29c-0.73-0.22-1.47-0.45-2.2-0.68c-0.63-0.2-1.42-0.34-2-0.67c0.26,0.33,0.52,0.66,0.78,0.99
					c-0.19-0.88-0.03-1.95-0.13-2.86c-0.1-0.9-0.24-1.8-0.49-2.67c-0.51-1.74-1.81-3.23-2.07-5.02c-0.83,0.62-1.65,1.24-2.48,1.86
					c1.74,1.03,4.17,1.2,6.15,0.88c0.97-0.16,1.91-0.5,2.74-1.02c0.4-0.25,0.78-0.54,1.17-0.81c0.26-0.18,0.79-0.66,1.11-0.7
					c-0.28-0.08-0.57-0.15-0.85-0.23c-0.28-0.18-0.12,0.27-0.2,0.65c-0.12,0.52-0.34,1.03-0.51,1.54c-0.34,1.01-0.66,2.03-0.94,3.06
					c-0.24,0.88-0.42,1.78-0.7,2.65c-0.14,0.42-0.29,0.85-0.56,1.21c-0.12,0.15-0.25,0.29-0.4,0.41c0.35,0.23,0.43,0.22,0.26-0.03
					c0.04-0.25-0.15-0.74-0.18-1c-0.05-0.49-0.09-0.97-0.17-1.46c-0.13-0.9-0.38-1.78-0.52-2.68c-0.05-0.24-0.08-0.48-0.09-0.72
					c-0.43,0.39-0.46,0.55-0.08,0.46c0.26,0.12,1.07-0.05,1.36-0.07c0.98-0.08,1.87-0.27,2.72-0.76c-0.77-0.2-1.54-0.39-2.31-0.59
					c0.05,0.07,0.09,0.15,0.14,0.22c-0.08-0.28-0.15-0.55-0.23-0.83c0.11,0.92-0.35,2.01-0.63,2.89c-0.17,0.52-0.35,1.03-0.54,1.55
					c-0.1,0.26-0.19,0.51-0.29,0.76c-0.19,0.36-0.06,0.32,0.4-0.13c0.69,0.38,1.38,0.77,2.08,1.15c-0.52-1.39-0.25-2.76,0.06-4.17
					c0.45-2.07-2.8-2.95-3.26-0.88c-0.43,1.96-0.79,3.99-0.06,5.93c0.31,0.83,1.14,1.42,2.08,1.15c1.75-0.5,2.16-2.6,2.66-4.09
					c0.51-1.51,1.42-3.72,0.51-5.21c-0.47-0.76-1.52-1.05-2.31-0.59c-1.25,0.72-2.9,0.14-4.22,0.76c-1.76,0.83-1.5,2.67-1.2,4.25
					c0.28,1.48,0.41,2.99,0.71,4.46c0.3,1.47,1.39,2.96,3.06,2.99c3.72,0.05,4.38-4.75,5.13-7.32c0.46-1.59,1.24-3.21,1.45-4.85
					c0.18-1.46-0.47-3.74-2.36-3.76c-1.78-0.02-2.98,1.51-4.44,2.23c-1.38,0.68-3.69,0.65-5.02-0.13c-1.39-0.82-2.67,0.53-2.48,1.86
					c0.21,1.42,1.02,2.57,1.63,3.84c0.61,1.28,0.83,2.71,0.91,4.12c0.07,1.32-0.28,2.96,1.14,3.7c1.43,0.75,3.25,1.09,4.79,1.56
					C143.92,91.1,144.81,87.92,142.74,87.29"/>
				<path class="st3" d="M112.01,94.29c0.43,0,0.44-0.66,0-0.66C111.57,93.63,111.57,94.29,112.01,94.29"/>
				<path class="st3" d="M111.92,94.27c0.05,0.01,0.09,0.02,0.13,0.06c0.14-0.17,0.27-0.35,0.41-0.52c-0.57-0.4-1.25-0.57-1.91-0.79
					c-0.32-0.11-0.63-0.23-0.91-0.4c-0.33-0.2-0.61-0.45-0.9-0.69c-0.32-0.28-0.8,0.18-0.48,0.47c0.3,0.25,0.59,0.51,0.92,0.72
					c0.31,0.2,0.66,0.35,1.01,0.48c0.65,0.23,1.34,0.38,1.92,0.78c0.31,0.22,0.69-0.27,0.41-0.52c-0.13-0.11-0.26-0.19-0.43-0.23
					C111.67,93.54,111.49,94.17,111.92,94.27"/>
				<path class="st3" d="M108.29,92.55c0.72,0.34,1.44,0.66,2.15,1.01c0.32,0.16,0.63,0.33,0.9,0.55c0.28,0.23,0.51,0.51,0.74,0.79
					c0.14-0.17,0.27-0.35,0.41-0.52c-0.85-0.4-1.64-0.89-2.39-1.45c-0.09,0.2-0.17,0.4-0.26,0.6c1.79,0.73,3.69,1.17,5.62,1.29
					c0.1,0.01,0.5-0.04,0.58,0.04c0.1,0.09-0.01,0.5-0.04,0.61c-0.05,0.21-0.12,0.42-0.23,0.61c-0.02,0.03-0.16,0.22-0.15,0.24
					c0.04,0.01,0.08,0.02,0.12,0.02c-0.02-0.02-0.05-0.03-0.07-0.05c-0.04-0.04-0.1-0.08-0.16-0.11c-0.78-0.55-1.71-0.78-2.52-1.27
					c-0.86-0.53-1.53-1.3-2.2-2.03c-0.14,0.17-0.27,0.35-0.41,0.52c1.08,0.66,2.33,0.99,3.6,0.95c0.43-0.01,0.44-0.67,0-0.66
					c-1.16,0.03-2.27-0.26-3.25-0.86c-0.34-0.21-0.65,0.25-0.41,0.52c0.68,0.76,1.38,1.53,2.26,2.09c0.49,0.31,1.03,0.52,1.55,0.75
					c0.25,0.11,0.49,0.23,0.72,0.36c0.21,0.13,0.41,0.32,0.63,0.41c0.55,0.22,0.86-0.47,1.02-0.86c0.17-0.42,0.32-1.01,0.16-1.44
					c-0.19-0.5-0.77-0.45-1.22-0.48c-0.57-0.04-1.15-0.1-1.71-0.2c-1.28-0.22-2.53-0.58-3.73-1.07c-0.15-0.06-0.34,0.06-0.4,0.19
					c-0.07,0.16,0,0.31,0.14,0.41c0.75,0.56,1.54,1.04,2.39,1.45c0.35,0.17,0.66-0.23,0.41-0.52c-0.49-0.58-1.01-1.05-1.7-1.4
					c-0.73-0.37-1.49-0.71-2.23-1.06C108.25,91.8,107.9,92.37,108.29,92.55"/>
				<path class="st3" d="M112.78,94.24c0.14-0.15,0.21,0.02,0.11-0.06c-0.11,0.18-0.22,0.37-0.33,0.55c0.88,0.35,1.71,0.8,2.48,1.33
					c0.18,0.13,0.36,0.28,0.55,0.4c0.26,0.15,0.53,0.01,0.63-0.24c0.18-0.47,0.26-0.99,0.32-1.48c0.02-0.19-0.17-0.32-0.34-0.33
					c-0.74-0.06-1.52,0.15-2.22-0.13c-0.31-0.12-0.58,0.35-0.33,0.55c0.34,0.27,0.69,0.52,1.05,0.76c0.17,0.11,0.35,0.22,0.53,0.33
					c0.19,0.11,0.42,0.2,0.61,0.02c0.28-0.27,0.28-0.78,0.02-1.06c-0.27-0.29-0.74-0.3-1.02-0.03c-0.16,0.15-0.11,0.4,0.07,0.52
					c0.36,0.23,0.78,0.36,1.21,0.37v-0.66c-0.88,0.07-1.94,0.18-2.68-0.42c-0.14-0.11-0.34-0.13-0.48,0c-0.12,0.12-0.14,0.35,0,0.47
					c0.89,0.74,2.05,0.71,3.15,0.61c0.43-0.04,0.44-0.64,0-0.66c-0.32-0.01-0.61-0.11-0.87-0.28c0.02,0.17,0.05,0.35,0.07,0.52
					c0,0,0.03-0.01,0.04,0.01c0.02,0.04,0.02,0.02,0.02,0.08c0,0.08-0.06,0.09,0.03,0.04c0.06-0.02,0.11-0.03,0.17-0.05
					c-0.01,0-0.02,0-0.03,0c0.06,0.01,0.11,0.03,0.17,0.05c-0.56-0.28-1.09-0.68-1.58-1.07c-0.11,0.18-0.22,0.37-0.33,0.55
					c0.77,0.31,1.6,0.09,2.4,0.16l-0.34-0.33c-0.03,0.22-0.07,0.44-0.12,0.66c-0.02,0.11-0.05,0.22-0.08,0.32
					c-0.01,0.05-0.03,0.11-0.05,0.16c-0.01,0.02-0.01,0.04-0.02,0.06c-0.03,0.08-0.03,0.08,0.01,0.01c0.05-0.03,0.1-0.06,0.15-0.08
					c-0.01,0-0.02,0.01-0.03,0.01h0.18c0.04,0.02,0.03,0.02-0.03-0.02c-0.04-0.03-0.08-0.06-0.12-0.09c-0.07-0.05-0.13-0.1-0.2-0.15
					c-0.12-0.08-0.24-0.17-0.36-0.25c-0.25-0.17-0.51-0.33-0.77-0.47c-0.54-0.31-1.11-0.57-1.69-0.8c-0.31-0.12-0.58,0.35-0.33,0.55
					c0.24,0.19,0.6,0.33,0.84,0.06C113.55,94.39,113.07,93.92,112.78,94.24"/>
				<path class="st3" d="M122.52,96.98c2.17,0,2.18-3.3,0-3.3C120.35,93.69,120.34,96.98,122.52,96.98"/>
				<path class="st3" d="M121.99,93.71c-1.85,0.11-3.81-0.03-5.64,0.27c-1.33,0.22-1.52,1.93-0.75,2.76
					c0.72,0.76,1.79,0.75,2.78,0.88c1.06,0.14,2.12,0.25,3.19,0.33c2.16,0.18,2.15-3.12,0-3.3c-1.36-0.11-2.85-0.15-4.17-0.51
					c0.25,0.14,0.5,0.28,0.74,0.42c-0.05-0.05-0.1-0.11-0.15-0.16c-0.25,0.92-0.5,1.84-0.75,2.76c0.68-0.11,1.47,0,2.17-0.03
					c0.86-0.03,1.72-0.08,2.57-0.13C124.15,96.89,124.16,93.59,121.99,93.71"/>
				<path class="st3" d="M123.43,96.74c2.22,0.08,4.08-0.99,5.83-2.21c1.76-1.22,0.25-3.84-1.7-2.85c-1.06,0.54-2.17,1.36-3.39,1.49
					c-0.91,0.1-1.69,0.69-1.69,1.65c0,0.82,0.78,1.75,1.69,1.65c1.91-0.2,3.42-1.09,5.09-1.94c-0.57-0.95-1.14-1.9-1.7-2.85
					c-1.25,0.87-2.52,1.81-4.12,1.76C121.26,93.37,121.26,96.67,123.43,96.74"/>
				<path class="st3" d="M131.54,88.6c-0.67,1.11-1.8,1.74-2.96,2.28c-0.82,0.38-1.04,1.53-0.61,2.26c0.49,0.82,1.48,0.98,2.31,0.59
					c1.68-0.79,3.21-1.87,4.17-3.47C135.56,88.43,132.65,86.77,131.54,88.6"/>
				<path class="st3" d="M133.24,91.66c0.39-0.59,0.78-1.19,1.16-1.78c0.48-0.73,0.18-1.85-0.61-2.26c-0.83-0.43-1.8-0.19-2.31,0.59
					c-0.39,0.59-0.78,1.19-1.16,1.78c-0.48,0.73-0.18,1.85,0.61,2.26C131.77,92.68,132.73,92.44,133.24,91.66"/>
				<path class="st3" d="M118.18,98.04c1.52,0.48,2.97,0.46,4.54,0.32c0.91-0.08,1.69-0.7,1.69-1.65c0-0.83-0.77-1.73-1.69-1.65
					c-1.28,0.11-2.4,0.19-3.65-0.2C117.01,94.21,116.12,97.39,118.18,98.04"/>
				<path class="st3" d="M121.5,98.63c1.87-0.01,3.74,0.04,5.6,0.13v-3.3c-1.47-0.04-2.94-0.07-4.41-0.11
					c-1.6-0.04-2.4,2.37-0.85,3.07c0.88,0.4,1.79,0.84,2.77,0.91c0.94,0.06,1.77-0.31,2.68-0.49c2.13-0.42,1.23-3.6-0.9-3.18
					c-0.47,0.09-1.03,0.38-1.5,0.38c-0.44,0-0.95-0.29-1.34-0.47c-0.28,1.02-0.57,2.05-0.85,3.07c1.47,0.04,2.94,0.07,4.41,0.11
					c2.18,0.05,2.16-3.19,0-3.3c-1.87-0.09-3.73-0.14-5.6-0.13C119.33,95.34,119.32,98.63,121.5,98.63"/>
				<path class="st3" d="M126.98,98.9c1.16,0.04,2.34-0.07,3.47-0.38c1.18-0.32,2.24-0.9,3.43-1.2c2.13-0.54,4.2-2.07,5.76-3.54
					c-0.88-0.67-1.77-1.33-2.65-2c-0.24,0.51-0.49,0.82-0.94,1.16c0.8,0.78,1.59,1.55,2.39,2.33c1.22-0.96,2.59-1.53,3.61-2.74
					c0.83-0.98,1.51-2.23,2.6-2.97c1.76-1.21,0.08-4.07-1.7-2.85c-1.31,0.9-2.13,2.06-3.1,3.27c-1.05,1.29-2.49,1.94-3.79,2.96
					c-0.72,0.56-0.59,1.74,0,2.33c0.7,0.7,1.67,0.54,2.39,0c0.64-0.48,1.13-1.11,1.47-1.82c0.76-1.64-1.19-3.37-2.65-2
					c-1.29,1.21-2.92,2.35-4.67,2.77c-0.93,0.22-1.74,0.72-2.64,1.01c-0.98,0.31-1.93,0.41-2.96,0.38
					C124.81,95.53,124.81,98.83,126.98,98.9"/>
				<path class="st3" d="M142.2,87.29c-1.89,1.75-4.44,2.45-6.8,3.37c-2.52,0.99-4.91,2.31-7.53,3.03c-2.11,0.58-1.22,3.61,0.9,3.18
					c2.12-0.43,4.07-1.99,5.7-3.31c1.8-1.45,3.28-3.19,4.8-4.91c-0.88-0.67-1.77-1.33-2.65-2c-0.64,1.2-1.19,2.44-1.66,3.72
					c-0.73,2,2.53,2.86,3.26,0.88c0.37-1.01,0.81-1.98,1.32-2.93c0.85-1.58-1.34-3.48-2.65-2c-1.34,1.52-2.66,3.07-4.2,4.41
					c-1.32,1.14-3.04,2.6-4.81,2.96c0.3,1.06,0.6,2.12,0.9,3.18c2.89-0.8,5.5-2.28,8.29-3.32c2.7-1.01,5.4-1.96,7.53-3.93
					C146.17,88.16,143.78,85.83,142.2,87.29"/>
				<path class="st3" d="M104.39,52.5c0-4.19,3.48-7.6,7.78-7.6c3.5,0,6.46,2.26,7.44,5.37c0.22,0.71,0.34,1.45,0.34,2.23
					c0,4.19-3.48,7.6-7.78,7.6C107.87,60.1,104.39,56.7,104.39,52.5"/>
				<g class="st4">
					<defs>
						<rect id="SVGID_10_" x="101.38" y="44.58" width="49.25" height="54.84"/>
					</defs>
					<clipPath id="SVGID_11_">
						<use xlink:href="#SVGID_10_"  style="overflow:visible;"/>
					</clipPath>
					<path class="st5" d="M104.39,52.5c0-4.19,3.48-7.6,7.78-7.6c3.5,0,6.46,2.26,7.44,5.37c0.22,0.7,0.34,1.45,0.34,2.23
						c0,4.19-3.48,7.6-7.78,7.6C107.87,60.1,104.39,56.7,104.39,52.5z"/>
					<path class="st6" d="M106.04,57.52c-1.04,1.4-1.95,2.9-2.68,4.48c-0.56,1.2-1.07,2.45-1.38,3.74c-0.25,1.05-0.4,2.13-0.49,3.2
						c-0.16,1.85-0.17,3.77,0.11,5.6c0.12,0.81,0.5,1.59,1.19,2.08c0.61,0.44,1.4,0.61,2.15,0.58c1.42-0.05,2.81-0.6,4.08-1.18
						c0.89-0.4,1.73-0.87,2.57-1.33c1.28-0.7,2.63-1.26,4.03-1.69c0.89-0.27,1.8-0.49,2.71-0.66c0.76-0.14,1.56-0.32,2.33-0.32
						c0.76,0,1.53,0.07,2.27,0.21c3.05,0.55,5.85,2.12,7.62,4.65c1,1.43,1.63,3.07,1.89,4.78c0.16,1.04,0.19,2.08-0.04,3.1
						c-0.41,1.8-1.29,3.47-2.6,4.79c-1.07,1.08-2.38,1.89-3.79,2.5c-1.15,0.49-2.36,0.84-3.58,1.1c-1.53,0.33-3.08,0.56-4.65,0.55
						c-3.37-0.02-6.8-0.85-9.8-2.34c-0.57-0.28-1.13-0.59-1.68-0.92c-0.33-0.2-0.66,0.25-0.41,0.52c1.1,1.17,2.37,2.2,3.68,3.14
						c2.58,1.85,5.46,3.32,8.52,4.24c3.92,1.18,8.1,1.38,12.12,0.57c3.88-0.78,7.53-2.49,10.63-4.89c3.04-2.35,5.54-5.37,7.25-8.76
						c1.83-3.65,2.72-7.72,2.48-11.78c-0.21-3.64-1.3-7.2-3-10.44c-1.02-1.96-2.27-3.84-3.72-5.52c-1.18-1.36-2.52-2.59-3.97-3.68
						c-0.7-0.53-1.42-1.05-2.19-1.47c-0.73-0.4-1.49-0.76-2.26-1.09c-4.27-1.8-8.98-2.42-13.58-1.79c-0.79,0.11-1.58,0.26-2.36,0.44
						c-0.42,0.1-0.24,0.74,0.18,0.64c4.2-0.99,8.64-0.87,12.79,0.34c1.75,0.51,3.43,1.22,5.01,2.09c0.77,0.43,1.5,0.97,2.2,1.5
						c0.9,0.7,1.76,1.45,2.56,2.26c1.46,1.47,2.64,3.04,3.72,4.8c1.73,2.82,2.99,5.91,3.59,9.15c0.73,3.97,0.37,8.07-1.04,11.86
						c-1.28,3.46-3.4,6.62-6.09,9.2c-2.74,2.62-6.09,4.64-9.73,5.8c-3.85,1.23-8,1.5-11.98,0.73c-3.3-0.64-6.43-1.95-9.26-3.73
						c-1.7-1.07-3.31-2.3-4.73-3.71c-0.13-0.12-0.25-0.25-0.37-0.38c-0.14,0.17-0.27,0.35-0.41,0.52c2.82,1.7,5.96,2.73,9.24,3.16
						c1.81,0.24,3.64,0.25,5.45-0.02c1.17-0.17,2.34-0.42,3.48-0.75c2.97-0.85,5.77-2.43,7.47-5.03c0.55-0.84,0.97-1.76,1.26-2.71
						c0.19-0.62,0.36-1.29,0.38-1.94c0.04-1.19-0.11-2.39-0.41-3.55c-0.91-3.42-3.38-6.27-6.69-7.69c-1.16-0.5-2.39-0.84-3.65-1.01
						c-0.67-0.09-1.39-0.19-2.07-0.12c-3.33,0.35-6.59,1.27-9.49,2.92c-0.9,0.51-1.83,0.99-2.79,1.38
						c-0.67,0.28-1.37,0.52-2.08,0.69c-0.6,0.14-1.25,0.24-1.86,0.12c-0.94-0.19-1.61-0.77-1.86-1.69c-0.1-0.38-0.13-0.77-0.17-1.16
						c-0.05-0.52-0.08-1.04-0.09-1.57c-0.05-1.61,0.03-3.24,0.29-4.84c0.42-2.62,1.52-5.12,2.9-7.4c0.42-0.69,0.87-1.36,1.36-2.01
						C106.88,57.51,106.3,57.18,106.04,57.52"/>
				</g>
				<path class="st3" d="M143.23,79.08c-0.53-4.07-3.25-8.41-7.68-9.14c-2.11-0.35-4.39-0.13-6.27,0.92
					c-1.04,0.58-1.94,1.41-2.56,2.42c-0.65,1.06-0.96,2.29-1.03,3.52c-0.14,2.45,0.45,4.88,1.81,6.96c0.23,0.36,0.82,0.03,0.58-0.33
					c-1.15-1.76-1.71-3.73-1.74-5.82c-0.01-1.06,0.11-2.11,0.5-3.1c0.4-1,1.08-1.86,1.94-2.53c1.74-1.35,4.07-1.71,6.23-1.45
					c1.57,0.19,3.01,0.9,4.18,1.93c1.91,1.7,3.04,4.14,3.36,6.62C142.61,79.5,143.29,79.5,143.23,79.08"/>
				<path class="st3" d="M127.29,83.35c0.14,0.11,0.14,0.23,0.07,0.39c-0.11,0.23-0.32,0.34-0.58,0.33
					c-0.65-0.02-1.3-0.54-1.84-0.84c-1.2-0.66-2.45-1.26-3.8-1.57c-2.44-0.57-5.13-0.09-6.68,1.95c-0.67,0.87-1.19,2.13-1.04,3.23
					c0.15,1.16,1.42,1.36,2.41,1.31c2.99-0.14,5.97-0.24,8.96-0.19c3.41,0.06,6.81,0.27,10.2,0.63c0.43,0.05,0.43-0.61,0-0.66
					c-5.93-0.62-11.91-0.8-17.87-0.51c-0.62,0.03-1.26,0.11-1.88,0.07c-0.42-0.03-0.95-0.13-1.11-0.56c-0.19-0.5,0.03-1.22,0.2-1.69
					c0.18-0.52,0.46-1.01,0.82-1.43c1.71-2.03,4.59-2.02,6.93-1.19c0.72,0.25,1.41,0.58,2.08,0.94c0.66,0.35,1.3,0.8,2.01,1.05
					c0.6,0.21,1.28,0.15,1.68-0.38c0.3-0.4,0.36-1.01-0.07-1.34C127.43,82.62,126.95,83.09,127.29,83.35"/>
				<path class="st3" d="M127.74,82.82c0.4,0.63,0.53,1.38,0.37,2.08c-0.04,0.17,0.05,0.36,0.24,0.41c0.17,0.05,0.38-0.06,0.42-0.23
					c0.2-0.88,0.05-1.82-0.44-2.59c-0.1-0.15-0.3-0.21-0.46-0.12C127.71,82.45,127.64,82.66,127.74,82.82"/>
				<path class="st3" d="M128.69,84.15c0.12-0.37,0.07-0.75-0.1-1.09c-0.06-0.13-0.14-0.24-0.2-0.36c-0.02-0.03-0.03-0.06-0.05-0.09
					c0-0.01-0.03-0.08-0.02-0.03c0.02,0.04,0-0.01-0.01-0.02c-0.01-0.03-0.02-0.06-0.03-0.1c0-0.02-0.01-0.03-0.01-0.05
					c-0.01-0.05,0.01,0.08,0,0c-0.01-0.17-0.15-0.34-0.34-0.33c-0.17,0.01-0.35,0.15-0.34,0.33c0.02,0.33,0.19,0.59,0.34,0.87
					c0.02,0.03,0.03,0.06,0.05,0.09c0.01,0.02,0.07,0.11,0.02,0.04c0.04,0.06,0.05,0.15,0.06,0.22c-0.01-0.08,0,0.04,0,0.06
					c0,0.04,0,0.08,0,0.12c0,0.04,0,0.04,0,0c0,0.02-0.01,0.04-0.01,0.06c-0.01,0.04-0.02,0.08-0.03,0.11
					c-0.05,0.16,0.06,0.37,0.24,0.41C128.46,84.42,128.63,84.32,128.69,84.15"/>
				<path class="st3" d="M128.64,84.11c0.04-0.13,0.07-0.26,0.08-0.4c0.01-0.14-0.02-0.28-0.05-0.41c-0.06-0.22-0.13-0.44-0.22-0.66
					c-0.06-0.16-0.23-0.29-0.42-0.23c-0.16,0.05-0.3,0.23-0.24,0.41c0.08,0.2,0.14,0.41,0.2,0.61c0.01,0.05,0.03,0.1,0.04,0.15
					c0,0.01,0,0.02,0.01,0.04c0,0.03,0,0.02,0-0.03c0.01,0.01,0,0.07,0,0.08c0,0.01,0,0.02,0,0.04c0,0.04,0,0.03,0-0.01
					c0,0.02-0.01,0.05-0.01,0.07c-0.01,0.06-0.03,0.11-0.04,0.17c-0.05,0.17,0.06,0.37,0.24,0.41
					C128.41,84.38,128.59,84.29,128.64,84.11"/>
				<path class="st3" d="M127.82,74.11c0,0,0-0.01,0-0.01c0,0.03-0.01,0.06-0.01,0.09c0-0.02,0.01-0.03,0.01-0.05
					c-0.01,0.03-0.02,0.05-0.03,0.08c0.03-0.06,0.07-0.12,0.11-0.17c0.04-0.05,0.07-0.11,0.11-0.16c0.08-0.11,0.16-0.22,0.24-0.33
					c0.05-0.06,0.05-0.18,0.03-0.25c-0.02-0.08-0.08-0.16-0.16-0.2c-0.08-0.04-0.17-0.06-0.26-0.03c-0.03,0.01-0.05,0.02-0.08,0.03
					c-0.05,0.03-0.09,0.07-0.12,0.12c-0.09,0.12-0.18,0.24-0.27,0.37c-0.11,0.16-0.25,0.33-0.25,0.52c0,0.08,0.04,0.17,0.1,0.23
					c0.06,0.06,0.15,0.1,0.24,0.1C127.67,74.43,127.81,74.29,127.82,74.11"/>
				<path class="st3" d="M127.73,74.25c0.01-0.03,0.02-0.06,0.03-0.08C127.76,74.19,127.74,74.22,127.73,74.25
					c0.07-0.17,0.16-0.32,0.27-0.46c-0.02,0.02-0.04,0.04-0.05,0.07c0.06-0.08,0.13-0.16,0.21-0.23c0.06-0.06,0.1-0.15,0.1-0.23
					c0-0.08-0.04-0.18-0.1-0.23c-0.14-0.12-0.34-0.13-0.48,0c-0.27,0.25-0.47,0.57-0.6,0.91c-0.03,0.08-0.01,0.19,0.03,0.25
					c0.04,0.07,0.12,0.13,0.2,0.15c0.09,0.02,0.18,0.01,0.26-0.03C127.66,74.4,127.7,74.33,127.73,74.25"/>
				<path class="st3" d="M127.84,73.97c0-0.01,0-0.02,0-0.03c0,0.03-0.01,0.06-0.01,0.09c0-0.02,0.01-0.05,0.02-0.07
					c-0.01,0.03-0.02,0.05-0.03,0.08c0.04-0.1,0.11-0.19,0.18-0.28c-0.02,0.02-0.04,0.04-0.05,0.07c0.06-0.07,0.12-0.14,0.19-0.21
					c0.06-0.06,0.1-0.15,0.1-0.23c0-0.08-0.04-0.18-0.1-0.23c-0.06-0.06-0.15-0.1-0.24-0.1c-0.09,0-0.17,0.03-0.24,0.1
					c-0.11,0.1-0.21,0.22-0.29,0.34c-0.1,0.14-0.2,0.3-0.2,0.48c0,0.08,0.04,0.17,0.1,0.23c0.06,0.06,0.15,0.1,0.24,0.1
					c0.09,0,0.18-0.03,0.24-0.1C127.8,74.14,127.84,74.06,127.84,73.97"/>
				<path class="st3" d="M128.15,73.4c-0.24,0.4-0.48,0.8-0.72,1.2c-0.19,0.32,0.26,0.67,0.53,0.4c0.36-0.36,0.7-0.75,1-1.16
					c-0.21-0.08-0.41-0.17-0.62-0.25c-0.12,0.38-0.25,0.76-0.37,1.14c-0.1,0.31,0.34,0.56,0.56,0.32c0.22-0.24,0.42-0.49,0.59-0.76
					c-0.19-0.11-0.39-0.22-0.58-0.33c-0.12,0.23-0.23,0.46-0.34,0.69c-0.11,0.25-0.24,0.48-0.27,0.76
					c-0.02,0.24,0.23,0.35,0.43,0.32c0.25-0.04,0.43-0.28,0.59-0.45c0.18-0.19,0.34-0.4,0.5-0.61c-0.19-0.11-0.39-0.22-0.58-0.33
					c-0.16,0.25-0.29,0.52-0.39,0.79c-0.05,0.14,0.03,0.3,0.16,0.37c0.12,0.07,0.32,0.06,0.41-0.05c0.28-0.35,0.5-0.72,0.66-1.14
					c0.06-0.15-0.05-0.33-0.2-0.39c-0.16-0.06-0.33-0.01-0.42,0.13c-0.12,0.19-0.23,0.38-0.32,0.58c-0.11,0.23-0.25,0.49-0.18,0.75
					c0.06,0.22,0.3,0.29,0.5,0.2c0.4-0.19,0.67-0.54,0.94-0.87c-0.19-0.11-0.39-0.22-0.58-0.33c-0.16,0.22-0.3,0.45-0.42,0.7
					c-0.07,0.13-0.06,0.29,0.05,0.4c0.1,0.1,0.29,0.13,0.41,0.05c0.23-0.15,0.44-0.32,0.63-0.52c-0.18-0.13-0.35-0.27-0.53-0.4
					c-0.22,0.31-0.43,0.62-0.65,0.92c-0.1,0.14-0.04,0.38,0.12,0.45c0.24,0.1,0.44,0.05,0.65-0.08c0.17-0.11,0.34-0.24,0.5-0.37
					c-0.16-0.16-0.32-0.31-0.48-0.47c-0.18,0.2-0.34,0.41-0.48,0.64c-0.17,0.27,0.18,0.64,0.46,0.45c0.23-0.15,0.45-0.3,0.68-0.44
					c-0.15-0.15-0.31-0.3-0.46-0.45c-0.12,0.18-0.26,0.35-0.41,0.52c-0.12,0.13-0.13,0.34,0,0.47c0.12,0.12,0.36,0.13,0.48,0
					c0.19-0.21,0.36-0.42,0.51-0.65c0.19-0.27-0.18-0.63-0.46-0.45c-0.23,0.15-0.45,0.3-0.68,0.44c0.15,0.15,0.31,0.3,0.46,0.45
					c0.11-0.18,0.23-0.35,0.37-0.5c0.12-0.13,0.14-0.33,0-0.47c-0.14-0.14-0.34-0.11-0.48,0c-0.08,0.06-0.16,0.13-0.25,0.19
					c-0.04,0.03-0.09,0.06-0.14,0.09c-0.11,0.07-0.08,0.02,0.05,0.07c0.04,0.15,0.08,0.3,0.12,0.45c0.22-0.31,0.43-0.62,0.65-0.92
					c0.22-0.31-0.27-0.67-0.53-0.4c-0.15,0.16-0.32,0.3-0.5,0.42c0.15,0.15,0.31,0.3,0.46,0.45c0.12-0.24,0.26-0.48,0.42-0.7
					c0.11-0.15,0.03-0.37-0.12-0.45c-0.17-0.1-0.35-0.02-0.46,0.12c-0.19,0.24-0.41,0.5-0.69,0.63c0.17,0.07,0.33,0.13,0.5,0.2
					c-0.01,0.06-0.01,0.07,0.01,0.01c0-0.01,0.01-0.03,0.02-0.04c0.02-0.04,0.03-0.08,0.05-0.12c0.03-0.07,0.06-0.14,0.09-0.2
					c0.08-0.16,0.17-0.31,0.26-0.46c-0.21-0.08-0.41-0.17-0.62-0.25c-0.11,0.3-0.28,0.6-0.48,0.85c0.19,0.11,0.38,0.21,0.56,0.32
					c0.08-0.22,0.19-0.43,0.32-0.64c0.1-0.15,0.03-0.36-0.12-0.45c-0.17-0.1-0.35-0.03-0.46,0.12c-0.11,0.15-0.24,0.3-0.36,0.44
					c-0.07,0.07-0.13,0.14-0.2,0.21c-0.03,0.03-0.06,0.06-0.09,0.09c-0.05,0.05,0.04,0-0.03,0.01c0.14,0.11,0.28,0.21,0.43,0.32
					c0.02-0.16,0.14-0.36,0.21-0.51c0.1-0.2,0.19-0.41,0.3-0.61c0.08-0.16,0.04-0.36-0.12-0.45c-0.16-0.09-0.36-0.03-0.46,0.12
					c-0.14,0.22-0.3,0.43-0.49,0.63c0.19,0.11,0.38,0.21,0.56,0.32c0.12-0.38,0.25-0.76,0.37-1.14c0.05-0.16-0.05-0.33-0.2-0.39
					c-0.17-0.07-0.32,0-0.42,0.13c-0.27,0.36-0.57,0.71-0.89,1.03c0.18,0.13,0.35,0.27,0.53,0.4c0.24-0.4,0.48-0.8,0.72-1.2
					C128.95,73.37,128.37,73.03,128.15,73.4"/>
				<path class="st3" d="M129.78,76.37c0.5,0.4,0.94,0.86,1.34,1.36c0.24,0.31,0.7-0.08,0.53-0.4c-0.38-0.72-0.78-1.43-1.2-2.14
					c-0.19,0.11-0.39,0.22-0.58,0.33c0.43,0.63,0.86,1.26,1.28,1.89c0.21,0.31,0.41,0.62,0.62,0.94c0.19,0.29,0.4,0.58,0.52,0.91
					c0.19-0.11,0.38-0.21,0.56-0.32c-0.64-0.6-1.23-1.26-1.81-1.92c-0.28-0.32-0.75,0.14-0.48,0.47c0.66,0.76,1.32,1.56,1.5,2.57
					c0.17-0.12,0.33-0.25,0.5-0.37c-0.22-0.13-0.39-0.34-0.42-0.59c-0.02-0.18-0.14-0.33-0.34-0.33c-0.16,0-0.36,0.15-0.34,0.33
					c0.06,0.49,0.31,0.9,0.76,1.16c0.27,0.16,0.55-0.1,0.5-0.37c-0.2-1.12-0.95-2.01-1.68-2.86c-0.16,0.16-0.32,0.31-0.48,0.47
					c0.58,0.66,1.16,1.32,1.8,1.92c0.23,0.22,0.68,0,0.56-0.32c-0.24-0.7-0.75-1.32-1.15-1.93c-0.44-0.66-0.88-1.32-1.33-1.97
					c-0.24-0.35-0.8-0.04-0.58,0.33c0.42,0.7,0.82,1.41,1.2,2.14c0.18-0.13,0.35-0.27,0.53-0.4c-0.4-0.5-0.84-0.95-1.34-1.36
					C129.93,75.63,129.45,76.1,129.78,76.37"/>
				<path class="st3" d="M131.75,80.14c0.21,0.83,0.66,1.61,0.69,2.48c0.02,0.42,0.66,0.42,0.68,0c0.04-1-0.14-2-0.16-3
					c-0.22,0.03-0.44,0.06-0.66,0.09c0.21,0.66,0.43,1.33,0.58,2.01c0.15,0.69,0.11,1.36,0.01,2.06c0.22,0.03,0.44,0.06,0.66,0.09
					c0.04-0.77-0.05-1.55-0.28-2.29c-0.09-0.29-0.6-0.34-0.65,0c-0.1,0.65-0.2,1.29-0.3,1.94c-0.03,0.18,0.05,0.35,0.24,0.41
					c0.16,0.04,0.39-0.05,0.42-0.23c0.1-0.64,0.2-1.29,0.3-1.94h-0.65c0.21,0.69,0.29,1.4,0.25,2.12c-0.02,0.36,0.61,0.46,0.66,0.09
					c0.11-0.76,0.16-1.49,0.02-2.25c-0.14-0.74-0.38-1.45-0.61-2.17c-0.11-0.35-0.67-0.29-0.66,0.09c0.02,1,0.2,2,0.16,3h0.68
					c-0.03-0.94-0.49-1.76-0.72-2.65C132.29,79.55,131.64,79.72,131.75,80.14"/>
				<path class="st3" d="M131.31,87.58c0.6,0.03,1.2,0.05,1.8,0.08c0.18,0.01,0.35-0.16,0.34-0.33c-0.01-0.19-0.15-0.32-0.34-0.33
					c-0.6-0.03-1.2-0.05-1.8-0.08c-0.18-0.01-0.35,0.16-0.34,0.33C130.98,87.44,131.12,87.58,131.31,87.58"/>
				<path class="st3" d="M131.28,87.6c0.51,0.04,1.02,0.06,1.54,0.06c0.18,0,0.35-0.15,0.34-0.33C133.14,87.15,133,87,132.81,87
					c-0.51,0-1.03-0.02-1.54-0.06c-0.18-0.01-0.35,0.16-0.34,0.33C130.95,87.46,131.09,87.59,131.28,87.6"/>
				<path class="st3" d="M131.93,87.16c0.44-0.39,0.67-0.95,0.78-1.51c0.06-0.32,0.09-0.65,0.14-0.97c0.05-0.33,0.17-0.66,0.17-1
					c-0.21,0.06-0.42,0.11-0.63,0.17c0.11,0.2,0.33,0.36,0.34,0.6c0,0.27-0.13,0.56-0.18,0.83c-0.1,0.5-0.13,1.09-0.55,1.46
					c-0.32,0.29,0.16,0.75,0.48,0.47c0.53-0.47,0.6-1.16,0.73-1.81c0.07-0.33,0.21-0.66,0.19-1c-0.01-0.18-0.06-0.36-0.17-0.51
					c-0.08-0.12-0.19-0.23-0.26-0.36c-0.16-0.29-0.63-0.15-0.63,0.17c0,0.13-0.04,0.26-0.07,0.39c-0.03,0.14-0.06,0.29-0.08,0.44
					c-0.05,0.3-0.08,0.61-0.13,0.91c-0.09,0.48-0.24,0.95-0.62,1.28C131.13,86.98,131.61,87.44,131.93,87.16"/>
				<path class="st3" d="M106.94,58.64c0.29-0.28,0.58-0.57,0.87-0.85c0.12-0.12,0.13-0.35,0-0.47c-0.13-0.12-0.34-0.13-0.48,0
					c-0.29,0.28-0.58,0.57-0.87,0.85c-0.13,0.12-0.13,0.35,0,0.47C106.6,58.76,106.81,58.77,106.94,58.64"/>
				<path class="st3" d="M106.91,58.68c0.15-0.27,0.31-0.54,0.48-0.79c0.08-0.12,0.17-0.24,0.26-0.36c0.02-0.03,0.05-0.06,0.07-0.09
					c-0.03,0.04-0.01,0.01,0.01-0.01c0.01-0.01,0.02-0.03,0.04-0.04c0.05-0.06,0.1-0.12,0.15-0.18c0.11-0.13,0.14-0.34,0-0.47
					c-0.13-0.11-0.36-0.14-0.48,0c-0.43,0.5-0.81,1.04-1.12,1.61c-0.08,0.15-0.04,0.37,0.12,0.45
					C106.61,58.88,106.83,58.85,106.91,58.68"/>
				<path class="st3" d="M106.96,58.53c0.06-0.08,0.12-0.15,0.18-0.23c0.01-0.02,0.01-0.02,0,0c0.01-0.01,0.01-0.02,0.02-0.03
					c0.01-0.02,0.03-0.04,0.04-0.05c0.03-0.04,0.06-0.08,0.1-0.12c0.13-0.15,0.26-0.31,0.39-0.46c0.26-0.3,0.54-0.59,0.82-0.87
					c0.12-0.12,0.14-0.35,0-0.47c-0.13-0.12-0.35-0.13-0.48,0c-0.6,0.59-1.15,1.23-1.65,1.89c-0.11,0.14-0.03,0.37,0.12,0.45
					C106.67,58.74,106.84,58.68,106.96,58.53"/>
				<path class="st3" d="M107.2,58.93c1.21,0.59,2.51,1.21,3.9,1.17c1.35-0.04,2.56-0.72,3.69-1.38c0.37-0.22,0.03-0.79-0.34-0.57
					c-1.02,0.6-2.12,1.25-3.35,1.29c-1.27,0.04-2.45-0.54-3.56-1.08C107.15,58.17,106.81,58.74,107.2,58.93"/>
				<path class="st3" d="M107.35,58.31c0.39,1.02,1.5,1.18,2.48,1.16c1.2-0.03,2.4-0.07,3.6-0.11c0.43-0.01,0.44-0.67,0-0.66
					c-1.02,0.03-2.04,0.06-3.06,0.09c-0.72,0.02-2.04,0.21-2.37-0.66C107.85,57.74,107.2,57.91,107.35,58.31"/>
				<path class="st3" d="M118.07,56.4c0.69,0.52,1.47,0.91,2.31,1.14c0.17,0.05,0.37-0.06,0.42-0.23c0.04-0.17-0.05-0.36-0.24-0.41
					c-0.39-0.1-0.72-0.22-1.06-0.39c-0.17-0.08-0.34-0.18-0.51-0.28c-0.08-0.05-0.17-0.11-0.25-0.16c-0.04-0.03-0.08-0.06-0.12-0.08
					c-0.01-0.01-0.1-0.07-0.08-0.06c-0.14-0.11-0.34-0.14-0.48,0C117.96,56.04,117.93,56.29,118.07,56.4"/>
				<path class="st3" d="M107.92,59.57c0.77,0.44,1.59,0.79,2.49,0.87c0.32,0.03,0.47-0.49,0.17-0.61
					c-0.58-0.25-1.16-0.49-1.74-0.74c-0.56-0.24-1.12-0.53-1.73-0.59c0.08,0.19,0.16,0.38,0.24,0.56c0.44-0.37,0.88-0.75,1.31-1.12
					c0.14-0.12,0.12-0.35,0-0.47c-0.14-0.13-0.34-0.12-0.48,0c-0.44,0.38-0.88,0.75-1.31,1.12c-0.24,0.21-0.03,0.54,0.24,0.56
					c0.25,0.02,0.5,0.12,0.74,0.22c0.26,0.11,0.52,0.22,0.78,0.33c0.54,0.23,1.08,0.46,1.62,0.69c0.06-0.2,0.11-0.41,0.17-0.61
					c-0.77-0.07-1.49-0.4-2.15-0.78C107.89,58.79,107.55,59.36,107.92,59.57"/>
				<path class="st3" d="M109.24,60.42c1.87,0.32,3.82,0.15,5.58-0.54c0.91-0.35,1.76-0.83,2.55-1.4c0.67-0.49,1.43-1.06,1.45-1.95
					c-0.21,0.06-0.42,0.11-0.63,0.17c0.17,0.3,0.38,0.57,0.64,0.8c0.05-0.18,0.1-0.37,0.15-0.55c-1.27,0.35-2.08,1.4-3.05,2.2
					c-0.54,0.45-1.15,0.74-1.85,0.83c-0.39,0.06-0.79,0.06-1.19,0.06c-0.18,0-0.77,0.07-0.86-0.16c-0.05,0.12-0.1,0.25-0.16,0.37
					c0.51-0.25,1.14-0.12,1.68-0.24c0.56-0.13,1.07-0.4,1.56-0.69c1-0.6,2.02-1.22,2.83-2.05c-0.19-0.08-0.38-0.16-0.58-0.23
					c-0.05,0.4-0.26,0.74-0.56,1.01c-0.32,0.29,0.16,0.76,0.48,0.47c0.44-0.4,0.68-0.91,0.76-1.48c0.04-0.29-0.39-0.42-0.58-0.23
					c-0.79,0.82-1.79,1.42-2.77,2c-0.46,0.27-0.96,0.53-1.5,0.61c-0.57,0.08-1.12,0.01-1.66,0.27c-0.13,0.06-0.2,0.24-0.16,0.37
					c0.28,0.78,1.33,0.66,2,0.64c0.85-0.03,1.68-0.17,2.4-0.62c1.18-0.73,1.98-2.1,3.37-2.49c0.24-0.07,0.34-0.38,0.15-0.55
					c-0.21-0.2-0.39-0.42-0.53-0.67c-0.17-0.29-0.62-0.15-0.63,0.17c-0.02,0.74-0.94,1.28-1.49,1.65c-0.71,0.48-1.47,0.89-2.28,1.17
					c-1.58,0.56-3.29,0.72-4.95,0.44C108.99,59.71,108.81,60.35,109.24,60.42"/>
				<path class="st3" d="M120.32,53.87c0,0.32-0.2,0.61-0.38,0.87c-0.18,0.27-0.39,0.52-0.61,0.76c-0.46,0.49-0.98,0.9-1.56,1.23
					c-0.38,0.21-0.04,0.78,0.34,0.57c0.66-0.37,1.26-0.85,1.77-1.41c0.25-0.28,0.48-0.57,0.69-0.88c0.23-0.34,0.43-0.72,0.43-1.14
					C120.99,53.44,120.31,53.44,120.32,53.87"/>
				<path class="st3" d="M119.91,55.95c0.74-0.63,0.99-1.57,1.2-2.46c0.1-0.41-0.52-0.58-0.65-0.18c-0.14,0.43-0.29,0.87-0.49,1.28
					c-0.16,0.34-0.35,0.74-0.67,0.98c0.14,0.17,0.27,0.35,0.41,0.52c0.71-0.82,1.25-1.76,1.59-2.78c0.13-0.41-0.51-0.57-0.65-0.18
					c-0.36,1-0.78,2.01-1.52,2.81c0.19,0.11,0.38,0.21,0.56,0.32c0.21-0.54,0.54-1.04,0.8-1.56c0.26-0.52,0.48-1.06,0.67-1.61
					c-0.22-0.06-0.43-0.12-0.65-0.18c-0.33,1.09-0.69,2.18-1.31,3.16c0.21,0.08,0.41,0.17,0.62,0.25c0.56-1.32,1.12-2.64,1.49-4.02
					c-0.22-0.06-0.43-0.12-0.65-0.18c-0.28,1.15-0.57,2.3-0.98,3.41c0.22,0.06,0.43,0.12,0.65,0.18c0.27-0.91,0.5-1.83,0.69-2.75
					c-0.22-0.06-0.43-0.12-0.65-0.18c-0.27,1.32-0.62,2.62-1.19,3.85c-0.18,0.38,0.39,0.72,0.58,0.33c0.65-1.29,1.23-2.61,1.74-3.97
					c0.15-0.4-0.5-0.57-0.65-0.18c-0.48,1.3-1.04,2.57-1.67,3.81c0.19,0.11,0.39,0.22,0.58,0.33c0.6-1.28,0.98-2.63,1.26-4
					c0.08-0.41-0.56-0.59-0.65-0.18c-0.2,0.93-0.43,1.84-0.69,2.75c-0.12,0.41,0.51,0.57,0.65,0.18c0.41-1.11,0.7-2.26,0.98-3.41
					c0.1-0.41-0.54-0.59-0.65-0.18c-0.37,1.38-0.93,2.7-1.49,4.02c-0.15,0.36,0.42,0.56,0.62,0.25c0.65-1.02,1.04-2.17,1.38-3.31
					c0.12-0.41-0.51-0.57-0.65-0.18c-0.19,0.55-0.42,1.09-0.68,1.61c-0.26,0.52-0.58,1.02-0.79,1.56c-0.12,0.31,0.35,0.56,0.56,0.32
					c0.82-0.89,1.29-1.99,1.69-3.1c-0.22-0.06-0.43-0.12-0.65-0.18c-0.3,0.91-0.78,1.76-1.42,2.49c-0.11,0.13-0.13,0.3-0.03,0.43
					c0.09,0.12,0.3,0.19,0.44,0.09c0.83-0.62,1.16-1.72,1.47-2.65c-0.22-0.06-0.43-0.12-0.65-0.18c-0.18,0.79-0.37,1.62-1.03,2.17
					C119.11,55.76,119.59,56.23,119.91,55.95"/>
				<path class="st3" d="M120.43,52.11c0.02,1.26-0.36,2.41-1,3.5c-0.6,1.03-1.31,2.01-2.2,2.82c-0.32,0.29,0.16,0.75,0.48,0.47
					c0.95-0.86,1.72-1.93,2.35-3.04c0.67-1.16,1.07-2.41,1.04-3.75C121.1,51.69,120.42,51.69,120.43,52.11"/>
				<path class="st3" d="M120.23,51.85c0.14,1.5-0.61,2.85-1.5,4.02c-0.92,1.22-1.94,2.4-3,3.51c-0.29,0.31,0.18,0.78,0.48,0.47
					c1.12-1.18,2.19-2.42,3.16-3.73c0.92-1.24,1.68-2.7,1.53-4.28C120.86,51.44,120.19,51.43,120.23,51.85"/>
				<path class="st3" d="M120.91,51.78v-0.3c0-0.05-0.01-0.09-0.03-0.13c-0.01-0.04-0.04-0.08-0.07-0.11
					c-0.03-0.03-0.07-0.05-0.11-0.07c-0.04-0.02-0.08-0.03-0.13-0.03c-0.03,0-0.06,0.01-0.09,0.01c-0.06,0.02-0.11,0.04-0.15,0.08
					c-0.02,0.02-0.04,0.04-0.05,0.07c-0.03,0.05-0.05,0.11-0.05,0.17v0.3c0,0.05,0.01,0.09,0.03,0.13c0.01,0.04,0.04,0.08,0.07,0.11
					c0.03,0.03,0.07,0.05,0.11,0.07c0.04,0.02,0.08,0.03,0.13,0.03c0.03,0,0.06-0.01,0.09-0.01c0.06-0.02,0.11-0.04,0.15-0.08
					c0.02-0.02,0.04-0.04,0.05-0.07C120.89,51.89,120.91,51.84,120.91,51.78"/>
				<path class="st3" d="M120.91,51.82c-0.01-0.23-0.04-0.46-0.07-0.69c0-0.05-0.01-0.09-0.03-0.13c-0.01-0.04-0.04-0.08-0.07-0.11
					c-0.06-0.06-0.15-0.1-0.24-0.1c-0.09,0-0.18,0.03-0.24,0.1c-0.06,0.06-0.11,0.15-0.1,0.23c0.03,0.23,0.05,0.46,0.07,0.69
					c0.01,0.09,0.03,0.17,0.1,0.23c0.06,0.06,0.15,0.1,0.24,0.1c0.09,0,0.18-0.03,0.24-0.1C120.87,51.99,120.91,51.9,120.91,51.82"
					/>
				<path class="st3" d="M120.92,51.84c0-0.11,0-0.22-0.01-0.33c-0.01-0.09-0.03-0.17-0.1-0.23c-0.06-0.06-0.15-0.1-0.24-0.1
					c-0.09,0-0.18,0.03-0.24,0.1c-0.06,0.06-0.1,0.14-0.1,0.23c0,0.1,0,0.2,0,0.29c0,0.08,0.04,0.17,0.1,0.23
					c0.06,0.06,0.15,0.1,0.24,0.1c0.09,0,0.18-0.03,0.24-0.1c0.06-0.07,0.1-0.14,0.1-0.23c0-0.09-0.01-0.19-0.02-0.28
					c-0.01-0.04-0.03-0.08-0.06-0.11c-0.02-0.04-0.06-0.06-0.09-0.09c-0.03-0.01-0.05-0.02-0.08-0.03
					c-0.05-0.01-0.09-0.02-0.13-0.01c-0.07,0.01-0.14,0.04-0.19,0.09c-0.02,0.02-0.04,0.04-0.05,0.07
					c-0.03,0.05-0.05,0.11-0.05,0.17c0,0.05-0.01,0.09-0.01,0.14h0.68c0-0.17,0-0.33,0-0.5c0-0.09-0.04-0.17-0.1-0.23
					c-0.06-0.06-0.15-0.1-0.24-0.1c-0.09,0-0.18,0.03-0.24,0.1c-0.06,0.06-0.1,0.14-0.1,0.23c0,0.17,0,0.33,0,0.5
					c0,0.09,0.04,0.17,0.1,0.23c0.06,0.06,0.15,0.1,0.24,0.1c0.09,0,0.18-0.03,0.24-0.1c0.02-0.02,0.04-0.04,0.05-0.07
					c0.03-0.05,0.05-0.11,0.05-0.17c0-0.05,0.01-0.09,0.01-0.14c-0.22,0.03-0.44,0.06-0.66,0.09c0,0,0,0.01,0,0.01
					c0-0.03-0.01-0.06-0.01-0.09c0.01,0.06,0.01,0.12,0.01,0.18h0.68c0-0.1,0-0.2,0-0.29h-0.68c0.01,0.11,0.01,0.22,0.01,0.33
					c0,0.08,0.04,0.18,0.1,0.23c0.06,0.06,0.15,0.1,0.24,0.1c0.09,0,0.18-0.03,0.24-0.1C120.88,52.01,120.92,51.93,120.92,51.84"/>
				<path class="st3" d="M141.24,77.34c0.76,1.47,1.53,2.94,1.94,4.54c0.11,0.41,0.76,0.24,0.65-0.18c-0.43-1.66-1.22-3.19-2.01-4.7
					C141.63,76.63,141.05,76.96,141.24,77.34"/>
				<path class="st3" d="M140.9,75.9c0.51,0.9,1.12,1.74,1.61,2.65c0.5,0.93,0.81,1.93,1.11,2.94c0.12,0.41,0.77,0.23,0.65-0.18
					c-0.31-1.03-0.63-2.05-1.13-3.01c-0.5-0.94-1.13-1.81-1.66-2.74C141.27,75.19,140.69,75.53,140.9,75.9"/>
				<path class="st3" d="M140.89,75.76c0.85,1.25,1.57,2.58,2.14,3.97c0.07,0.17,0.23,0.28,0.42,0.23c0.16-0.04,0.3-0.24,0.24-0.41
					c-0.59-1.45-1.32-2.83-2.2-4.13C141.23,75.08,140.64,75.41,140.89,75.76"/>
				<path class="st3" d="M140.26,74.81c1.24,1.51,1.62,3.5,2.81,5.05c0.26,0.34,0.84,0.01,0.58-0.33c-1.22-1.59-1.63-3.62-2.91-5.18
					C140.47,74.02,140,74.49,140.26,74.81"/>
				<path class="st3" d="M140.19,74.59c0.66,1.05,1.32,2.1,1.82,3.23c0.5,1.13,0.87,2.31,1.41,3.42c0.18,0.38,0.77,0.05,0.58-0.33
					c-0.54-1.11-0.91-2.29-1.41-3.42c-0.5-1.13-1.16-2.18-1.82-3.23C140.55,73.89,139.97,74.22,140.19,74.59"/>
				<path class="st3" d="M141.66,74.32c0.52,1.2,1.02,2.41,1.37,3.67c0.35,1.26,0.59,2.54,0.83,3.82c0.08,0.42,0.73,0.24,0.65-0.18
					c-0.25-1.31-0.49-2.63-0.86-3.92c-0.36-1.28-0.87-2.51-1.41-3.73c-0.07-0.17-0.32-0.2-0.46-0.12
					C141.6,73.97,141.58,74.16,141.66,74.32"/>
				<path class="st3" d="M140.94,73.24c1.08,1.48,1.92,3.12,2.47,4.86c0.13,0.4,0.78,0.23,0.65-0.18c-0.57-1.79-1.42-3.49-2.54-5.02
					C141.28,72.56,140.69,72.89,140.94,73.24"/>
				<path class="st3" d="M141.2,73.57c1.03,1.82,1.82,3.75,2.35,5.77c0.11,0.41,0.76,0.24,0.65-0.18c-0.54-2.07-1.36-4.06-2.41-5.92
					C141.57,72.86,140.98,73.2,141.2,73.57"/>
				<path class="st3" d="M141.51,73.45c0.94,2.22,1.76,4.49,2.46,6.8c0.12,0.41,0.78,0.23,0.65-0.18c-0.7-2.31-1.52-4.58-2.46-6.8
					C142,72.88,141.34,73.05,141.51,73.45"/>
				<path class="st3" d="M140.22,74.72c0.89,1.82,1.74,3.66,2.53,5.52c0.07,0.17,0.22,0.28,0.42,0.23c0.16-0.04,0.31-0.24,0.24-0.41
					c-0.82-1.91-1.69-3.81-2.6-5.68C140.62,74.01,140.04,74.34,140.22,74.72"/>
				<path class="st3" d="M140.19,74.55c1.32,2.47,2.65,4.93,3.98,7.39c0.2,0.38,0.79,0.04,0.58-0.33c-1.33-2.46-2.66-4.93-3.98-7.39
					C140.57,73.84,139.98,74.18,140.19,74.55"/>
				<path class="st3" d="M140.13,74.58c0.86,1.75,1.68,3.52,2.48,5.3c0.17,0.39,0.75,0.05,0.58-0.33c-0.79-1.78-1.62-3.55-2.48-5.3
					C140.52,73.87,139.94,74.2,140.13,74.58"/>
				<path class="st3" d="M139.71,74.03c1.12,1.65,2.26,3.33,2.91,5.22c0.14,0.4,0.79,0.23,0.65-0.18c-0.67-1.95-1.82-3.68-2.98-5.38
					C140.05,73.35,139.47,73.68,139.71,74.03"/>
				<path class="st3" d="M139.18,73.46c2.11,2.46,3.72,5.31,4.73,8.36c0.13,0.4,0.79,0.23,0.65-0.18c-1.05-3.16-2.72-6.1-4.9-8.65
					C139.37,72.67,138.9,73.14,139.18,73.46"/>
				<path class="st3" d="M138.61,73.06c2.3,2.62,4.31,5.47,6.01,8.5c0.48,0.86,0.94,1.74,1.37,2.63c0.19,0.38,0.77,0.05,0.58-0.33
					c-1.54-3.16-3.4-6.15-5.57-8.93c-0.62-0.79-1.26-1.57-1.92-2.32C138.8,72.27,138.33,72.74,138.61,73.06"/>
				<path class="st3" d="M139.14,73.24c2.11,1.91,3.85,4.17,5.15,6.68c0.19,0.38,0.78,0.05,0.58-0.33c-1.31-2.56-3.1-4.87-5.25-6.81
					C139.3,72.48,138.82,72.95,139.14,73.24"/>
				<path class="st3" d="M139.65,72.85c-0.05-0.07-0.11-0.13-0.19-0.18c-0.05-0.03-0.11-0.05-0.17-0.07
					c-0.08-0.03-0.17-0.07-0.25-0.1c-0.04-0.01-0.09-0.02-0.13-0.01c-0.05,0-0.09,0.01-0.13,0.04c-0.04,0.02-0.07,0.05-0.09,0.08
					c-0.03,0.03-0.05,0.07-0.06,0.11c-0.02,0.08-0.02,0.18,0.03,0.25c0.02,0.02,0.04,0.04,0.05,0.07c0.04,0.04,0.09,0.07,0.15,0.09
					c0.09,0.04,0.18,0.07,0.27,0.11c-0.03-0.01-0.05-0.02-0.08-0.03c0.03,0.01,0.06,0.03,0.09,0.05c-0.02-0.02-0.05-0.03-0.07-0.05
					c0.01,0.01,0.02,0.02,0.03,0.03c-0.02-0.02-0.04-0.04-0.05-0.07c0,0,0.01,0.01,0.01,0.01c0.02,0.04,0.05,0.07,0.09,0.09
					c0.03,0.03,0.07,0.05,0.12,0.06c0.04,0.01,0.09,0.02,0.13,0.01c0.05,0,0.09-0.01,0.13-0.04c0.07-0.05,0.14-0.11,0.16-0.2
					C139.71,73.02,139.7,72.93,139.65,72.85"/>
				<path class="st3" d="M139.67,72.81c-0.16-0.12-0.32-0.21-0.5-0.29c-0.18-0.08-0.36-0.14-0.55-0.2
					c-0.17-0.05-0.38,0.06-0.42,0.23c-0.04,0.18,0.06,0.35,0.24,0.41c0.16,0.05,0.32,0.1,0.47,0.16c-0.03-0.01-0.05-0.02-0.08-0.03
					c0.15,0.06,0.29,0.13,0.42,0.23c-0.02-0.02-0.05-0.03-0.07-0.05c0,0,0.01,0.01,0.01,0.01c0.07,0.06,0.14,0.1,0.24,0.1
					c0.08,0,0.18-0.04,0.24-0.1c0.06-0.06,0.1-0.15,0.1-0.23C139.77,72.96,139.74,72.86,139.67,72.81"/>
				<path class="st3" d="M139.78,72.95c-0.19-0.25-0.43-0.43-0.71-0.58c-0.28-0.15-0.59-0.28-0.89-0.39
					c-0.17-0.06-0.38,0.07-0.42,0.23c-0.04,0.19,0.06,0.34,0.24,0.41c0.07,0.02,0.13,0.05,0.2,0.07c0.02,0.01,0.03,0.01,0.05,0.02
					c0.04,0.01,0.02,0-0.01,0c0.03,0.01,0.07,0.03,0.1,0.04c0.13,0.06,0.25,0.11,0.37,0.18c0.11,0.06,0.21,0.12,0.31,0.19
					c0.04,0.03-0.05-0.04-0.01-0.01c0.01,0.01,0.02,0.02,0.03,0.03c0.02,0.02,0.05,0.04,0.07,0.06c0.02,0.02,0.04,0.04,0.06,0.06
					c0.02,0.02,0.08,0.1,0.03,0.03c0.06,0.07,0.11,0.13,0.2,0.15c0.08,0.02,0.19,0.01,0.26-0.03
					C139.8,73.32,139.9,73.1,139.78,72.95"/>
				<path class="st3" d="M139.33,72.59c-0.03-0.05-0.07-0.1-0.12-0.14c-0.05-0.04-0.1-0.08-0.16-0.11
					c-0.07-0.04-0.15-0.07-0.23-0.11c-0.04-0.02-0.08-0.04-0.13-0.04c-0.04-0.01-0.09-0.01-0.13,0.01
					c-0.04,0.01-0.08,0.03-0.12,0.06c-0.04,0.02-0.07,0.05-0.09,0.09c-0.04,0.08-0.06,0.17-0.03,0.25c0.03,0.08,0.08,0.15,0.16,0.2
					c0.1,0.05,0.21,0.09,0.3,0.16c-0.02-0.02-0.05-0.03-0.07-0.05c0.03,0.02,0.05,0.04,0.07,0.07c-0.02-0.02-0.04-0.04-0.05-0.07
					c0.01,0.01,0.01,0.02,0.02,0.02c0.05,0.07,0.12,0.13,0.2,0.15c0.05,0.01,0.09,0.02,0.13,0.01c0.04,0,0.09-0.02,0.13-0.04
					c0.07-0.05,0.14-0.11,0.16-0.2C139.39,72.76,139.38,72.67,139.33,72.59"/>
				<path class="st3" d="M139.33,72.56c-0.07-0.06-0.13-0.13-0.21-0.18c-0.04-0.03-0.08-0.06-0.13-0.09
					c-0.06-0.03-0.12-0.06-0.18-0.08c-0.04-0.01-0.09-0.02-0.13-0.01c-0.05,0-0.09,0.02-0.13,0.04c-0.04,0.02-0.07,0.05-0.09,0.08
					c-0.03,0.03-0.05,0.07-0.06,0.11c0,0.03-0.01,0.06-0.01,0.09c0,0.06,0.02,0.12,0.05,0.17c0.02,0.02,0.04,0.04,0.05,0.07
					c0.04,0.04,0.09,0.07,0.15,0.08c0.02,0,0.03,0.01,0.05,0.02c-0.03-0.01-0.05-0.02-0.08-0.03c0.05,0.02,0.1,0.05,0.15,0.09
					c-0.02-0.02-0.05-0.03-0.07-0.05c0.06,0.05,0.12,0.1,0.17,0.16c0.03,0.03,0.07,0.05,0.11,0.07c0.04,0.02,0.08,0.03,0.13,0.03
					c0.05,0,0.09-0.01,0.13-0.03c0.04-0.01,0.08-0.04,0.11-0.07c0.06-0.06,0.1-0.15,0.1-0.23C139.43,72.71,139.4,72.63,139.33,72.56
					"/>
				<path class="st3" d="M131.96,88.85c2.37,0.11,4.71-0.34,7.08-0.3c0.43,0.01,0.43-0.65,0-0.66c-2.37-0.03-4.71,0.42-7.08,0.3
					C131.52,88.17,131.52,88.83,131.96,88.85"/>
				<path class="st3" d="M131.96,87.56c1.95,0.23,3.81,0.9,5.77,1.13c0.43,0.05,0.43-0.61,0-0.66c-1.95-0.24-3.81-0.9-5.77-1.13
					C131.53,86.85,131.53,87.51,131.96,87.56"/>
				<path class="st3" d="M131.58,87.48c1.71,0.43,3.43,0.81,5.17,1.12c0.42,0.08,0.61-0.56,0.18-0.64
					c-1.73-0.32-3.46-0.69-5.17-1.12C131.33,86.74,131.15,87.37,131.58,87.48"/>
				<path class="st3" d="M131.42,87.62c1.23,0.2,2.43,0.49,3.62,0.85c0.06-0.21,0.12-0.42,0.18-0.64c-0.9-0.25-1.8-0.51-2.71-0.72
					c-0.44-0.1-0.88-0.2-1.33-0.28c-0.41-0.07-0.8-0.15-1.19,0.05c0.14,0.17,0.27,0.35,0.41,0.52c0.42-0.41,0.91-0.73,1.45-0.96
					c0.4-0.17,0.05-0.74-0.34-0.57c-0.59,0.26-1.13,0.62-1.59,1.07c-0.28,0.27,0.07,0.69,0.41,0.52c0.28-0.15,0.76,0.03,1.05,0.09
					c0.41,0.08,0.82,0.17,1.23,0.27c0.81,0.2,1.62,0.43,2.43,0.66c0.42,0.12,0.59-0.51,0.18-0.64c-1.19-0.36-2.39-0.65-3.62-0.85
					C131.17,86.91,130.99,87.55,131.42,87.62"/>
				<path class="st4" d="M106.94,64.91c0-1.52,1.26-2.75,2.81-2.75c1.55,0,2.81,1.23,2.81,2.75c0,1.52-1.26,2.75-2.81,2.75
					C108.19,67.65,106.94,66.42,106.94,64.91"/>
				<ellipse class="st7" cx="109.75" cy="64.91" rx="2.81" ry="2.75"/>
				<path class="st3" d="M116.61,95.97c1.01,0,2.02,0.05,3.02,0.13c0.18,0.02,0.34-0.16,0.34-0.33c0-0.19-0.16-0.31-0.34-0.33
					c-1.01-0.08-2.01-0.13-3.02-0.13C116.18,95.31,116.18,95.97,116.61,95.97"/>
			</g>
		</g>
	</g>
	<polygon class="st8" points="5.95,6.71 5.95,137.29 5.95,138.95 7.62,138.95 244.38,138.95 246.05,138.95 246.05,137.29 
		246.05,6.71 246.05,5.05 244.38,5.05 7.62,5.05 5.95,5.05 	"/>
	<rect x="9.28" y="8.38" class="st8" width="233.43" height="127.23"/>
</g>
</svg>
